# 3ds Max Wavefront OBJ Exporter v0.97b - (c)2007 guruware
# 创建的文件:26.02.2022 19:05:52

#
# object qianlun2
#

v  -0.1069 0.0351 0.1368
v  -0.1204 0.0276 0.1393
v  -0.1069 0.0201 0.1417
v  -0.1339 0.0351 0.1368
v  -0.1339 0.0201 0.1417
v  -0.1069 0.0443 0.1241
v  -0.1204 0.0397 0.1305
v  -0.1339 0.0443 0.1241
v  -0.1069 0.0443 0.1084
v  -0.1204 0.0443 0.1163
v  -0.1339 0.0443 0.1084
v  -0.1069 0.0351 0.0957
v  -0.1204 0.0397 0.1021
v  -0.1339 0.0351 0.0957
v  -0.1069 0.0201 0.0908
v  -0.1204 0.0276 0.0933
v  -0.1339 0.0201 0.0908
v  -0.1069 0.0052 0.0957
v  -0.1204 0.0126 0.0933
v  -0.1339 0.0052 0.0957
v  -0.1069 -0.0040 0.1084
v  -0.1204 0.0006 0.1021
v  -0.1339 -0.0040 0.1084
v  -0.1069 -0.0040 0.1241
v  -0.1204 -0.0040 0.1163
v  -0.1339 -0.0040 0.1241
v  -0.1069 0.0052 0.1368
v  -0.1204 0.0006 0.1305
v  -0.1339 0.0052 0.1368
v  -0.1204 0.0126 0.1393
v  -0.1069 0.0081 0.1265
v  -0.1069 0.0202 0.1163
v  -0.1069 0.0081 0.1123
v  -0.1069 0.0201 0.1290
v  -0.1069 0.0337 0.1246
v  -0.1279 0.0338 0.1351
v  -0.1279 0.0423 0.1234
v  -0.1279 0.0269 0.1185
v  -0.1279 0.0201 0.1395
v  -0.1279 0.0167 0.1268
v  -0.1279 -0.0020 0.1234
v  -0.1279 0.0125 0.1137
v  -0.1279 0.0064 0.1351
v  -0.1279 -0.0020 0.1090
v  -0.1279 0.0064 0.0974
v  -0.1279 0.0235 0.1057
v  -0.1279 0.0329 0.1073
v  -0.1279 0.0423 0.1090
v  -0.1279 0.0338 0.0974
v  -0.1339 0.0338 0.1351
v  -0.1339 0.0201 0.1395
v  -0.1339 0.0423 0.1234
v  -0.1339 0.0423 0.1090
v  -0.1339 0.0338 0.0974
v  -0.1339 0.0201 0.0929
v  -0.1339 0.0064 0.0974
v  -0.1339 -0.0020 0.1090
v  -0.1339 -0.0020 0.1234
v  -0.1339 0.0064 0.1351
v  -0.1279 0.0201 0.0929
v  -0.1069 0.0201 0.1035
v  -0.1069 0.0322 0.1123
v  -0.1204 0.0052 0.1368
v  -0.1204 0.0201 0.1417
v  -0.1204 -0.0040 0.1241
v  -0.1204 -0.0040 0.1084
v  -0.1204 0.0052 0.0957
v  -0.1204 0.0201 0.0908
v  -0.1204 0.0351 0.0957
v  -0.1204 0.0443 0.1084
v  -0.1204 0.0443 0.1241
v  -0.1204 0.0351 0.1368
# 72 vertices

vn 0.0000 0.3090 0.9511
vn 0.0000 0.1564 0.9877
vn 0.0000 0.0000 1.0000
vn 0.0000 0.8090 0.5878
vn 0.0000 0.9511 -0.3090
vn 0.0000 0.9877 -0.1564
vn 0.0000 1.0000 -0.0000
vn 0.0000 0.8090 -0.5878
vn 0.0000 0.8910 -0.4540
vn 0.0000 0.0000 -1.0000
vn 0.0000 0.1564 -0.9877
vn 0.0000 0.3090 -0.9511
vn 0.0000 -0.3090 -0.9511
vn 0.0000 -0.1564 -0.9877
vn 0.0000 -0.8090 -0.5878
vn 0.0000 -0.9511 0.3090
vn 0.0000 -0.9877 0.1564
vn 0.0000 -1.0000 -0.0000
vn 0.0000 -0.8090 0.5878
vn 0.0000 -0.8910 0.4540
vn 0.0000 -0.1564 0.9877
vn 0.0000 -0.3090 0.9511
vn 1.0000 0.0000 -0.0000
vn -1.0000 0.0000 -0.0000
vn 0.0000 -0.5878 -0.8090
vn 0.0000 0.9511 0.3090
vn 0.0000 0.5878 -0.8090
# 27 vertex normals

vt 0.6675 0.9673 0.0000
vt 0.6761 0.9818 0.0000
vt 0.6846 0.9673 0.0000
vt 0.6675 0.9963 0.0000
vt 0.6846 0.9963 0.0000
vt 0.6847 0.9673 0.0000
vt 0.6847 0.9963 0.0000
vt 0.7020 0.9673 0.0000
vt 0.6934 0.9818 0.0000
vt 0.7020 0.9963 0.0000
vt 0.6933 0.9818 0.0000
vt 0.9829 0.8392 0.0000
vt 0.9772 0.8313 0.0000
vt 0.9809 0.8328 0.0000
vt 0.9771 0.8264 0.0000
vt 0.9772 0.8240 0.0000
vt 0.9828 0.8392 0.0000
vt 0.9921 0.8422 0.0000
vt 0.9846 0.8343 0.0000
vt 0.9771 0.8313 0.0000
vt 0.9800 0.8316 0.0000
vt 0.8455 0.9530 0.0000
vt 0.8576 0.9617 0.0000
vt 0.8627 0.9459 0.0000
vt 0.8409 0.9388 0.0000
vt 0.8541 0.9353 0.0000
vt 0.8576 0.9159 0.0000
vt 0.8676 0.9309 0.0000
vt 0.8455 0.9247 0.0000
vt 0.8725 0.9159 0.0000
vt 0.8845 0.9247 0.0000
vt 0.8759 0.9423 0.0000
vt 0.8742 0.9520 0.0000
vt 0.8725 0.9617 0.0000
vt 0.8845 0.9530 0.0000
vt 0.8428 0.9550 0.0000
vt 0.8446 0.9536 0.0000
vt 0.8375 0.9388 0.0000
vt 0.8398 0.9388 0.0000
vt 0.8565 0.9650 0.0000
vt 0.8572 0.9628 0.0000
vt 0.8735 0.9650 0.0000
vt 0.8728 0.9628 0.0000
vt 0.8873 0.9550 0.0000
vt 0.8854 0.9536 0.0000
vt 0.8925 0.9388 0.0000
vt 0.8902 0.9388 0.0000
vt 0.8873 0.9226 0.0000
vt 0.8854 0.9240 0.0000
vt 0.8735 0.9127 0.0000
vt 0.8728 0.9148 0.0000
vt 0.8565 0.9127 0.0000
vt 0.8572 0.9148 0.0000
vt 0.8428 0.9226 0.0000
vt 0.8446 0.9240 0.0000
vt 0.8893 0.9880 0.0000
vt 0.9009 0.9831 0.0000
vt 0.9009 0.9880 0.0000
vt 0.8893 0.9831 0.0000
vt 0.8776 0.9880 0.0000
vt 0.8776 0.9831 0.0000
vt 0.9772 0.8216 0.0000
vt 0.9921 0.8107 0.0000
vt 0.9846 0.8186 0.0000
vt 0.9829 0.8137 0.0000
vt 0.9828 0.8137 0.0000
vt 0.9771 0.8216 0.0000
vt 0.9771 0.8240 0.0000
vt 0.8891 0.9388 0.0000
vt 0.7020 0.9818 0.0000
vt 0.6846 0.9818 0.0000
vt 0.6847 0.9818 0.0000
vt 0.6675 0.9818 0.0000
# 73 texture coords

o qianlun2
g qianlun2
s 1
f -72/-73/-27 -71/-72/-26 -70/-71/-25 
f -69/-70/-27 -68/-69/-25 -71/-72/-26 
f -67/-71/-24 -66/-72/-24 -72/-73/-24 
f -65/-69/-24 -69/-70/-24 -66/-72/-24 
f -64/-68/-23 -63/-72/-22 -67/-73/-21 
f -62/-67/-23 -65/-70/-21 -63/-72/-22 
f -61/-66/-20 -60/-65/-19 -64/-68/-23 
f -59/-64/-20 -62/-67/-23 -60/-65/-19 
f -58/-71/-18 -57/-63/-17 -61/-66/-16 
f -56/-69/-18 -59/-64/-16 -57/-63/-17 
f -55/-73/-15 -54/-72/-14 -58/-71/-18 
f -53/-70/-15 -56/-69/-18 -54/-72/-14 
f -52/-71/-13 -51/-72/-13 -55/-73/-13 
f -50/-69/-13 -53/-70/-13 -51/-72/-13 
f -49/-68/-12 -48/-72/-11 -52/-73/-10 
f -47/-67/-12 -50/-70/-10 -48/-72/-11 
f -46/-66/-9 -45/-65/-8 -49/-68/-12 
f -44/-64/-9 -47/-67/-12 -45/-65/-8 
f -70/-71/-25 -43/-63/-7 -46/-66/-6 
f -68/-69/-25 -44/-64/-6 -43/-63/-7 
f -46/-62/-5 -49/-61/-5 -42/-60/-5 
f -41/-59/-5 -42/-60/-5 -40/-58/-5 
f -72/-57/-5 -70/-56/-5 -39/-55/-5 
f -67/-54/-5 -72/-57/-5 -38/-53/-5 
f -37/-52/-4 -36/-51/-4 -35/-50/-4 
f -34/-49/-4 -37/-52/-4 -33/-48/-4 
f -32/-47/-4 -33/-48/-4 -31/-46/-4 
f -32/-47/-4 -30/-45/-4 -33/-48/-4 
f -29/-44/-4 -31/-46/-4 -28/-43/-4 
f -28/-43/-4 -31/-46/-4 -27/-42/-4 
f -26/-41/-4 -36/-51/-4 -25/-40/-4 
f -24/-39/-4 -27/-42/-4 -26/-41/-4 
f -69/-38/-4 -23/-37/-4 -68/-36/-4 
f -23/-37/-4 -22/-35/-4 -68/-36/-4 
f -65/-34/-4 -21/-33/-4 -69/-38/-4 
f -21/-33/-4 -23/-37/-4 -69/-38/-4 
f -62/-32/-4 -21/-33/-4 -65/-34/-4 
f -20/-31/-4 -21/-33/-4 -62/-32/-4 
f -59/-30/-4 -20/-31/-4 -62/-32/-4 
f -19/-29/-4 -20/-31/-4 -59/-30/-4 
f -56/-28/-4 -19/-29/-4 -59/-30/-4 
f -18/-27/-4 -19/-29/-4 -56/-28/-4 
f -53/-26/-4 -18/-27/-4 -56/-28/-4 
f -17/-25/-4 -18/-27/-4 -53/-26/-4 
f -50/-24/-4 -16/-23/-4 -53/-26/-4 
f -16/-23/-4 -17/-25/-4 -53/-26/-4 
f -47/-22/-4 -15/-21/-4 -50/-24/-4 
f -15/-21/-4 -16/-23/-4 -50/-24/-4 
f -44/-20/-4 -14/-19/-4 -47/-22/-4 
f -14/-19/-4 -15/-21/-4 -47/-22/-4 
f -68/-36/-4 -22/-35/-4 -44/-20/-4 
f -22/-35/-4 -14/-19/-4 -44/-20/-4 
f -23/-18/-3 -34/-17/-15 -22/-16/-15 
f -37/-15/-3 -34/-17/-15 -23/-18/-3 
f -21/-14/-13 -37/-15/-3 -23/-18/-3 
f -36/-13/-13 -37/-15/-3 -21/-14/-13 
f -20/-18/-12 -36/-13/-10 -21/-14/-10 
f -25/-15/-12 -36/-13/-10 -20/-18/-12 
f -19/-16/-9 -25/-15/-12 -20/-18/-12 
f -24/-17/-9 -25/-15/-12 -19/-16/-9 
f -18/-18/-25 -24/-17/-6 -19/-16/-6 
f -13/-15/-25 -24/-17/-6 -18/-18/-25 
f -17/-14/-27 -13/-15/-25 -18/-18/-25 
f -28/-13/-27 -13/-15/-25 -17/-14/-27 
f -16/-18/-2 -28/-13/-24 -17/-14/-24 
f -29/-15/-2 -28/-13/-24 -16/-18/-2 
f -15/-16/-21 -29/-15/-2 -16/-18/-2 
f -32/-17/-21 -29/-15/-2 -15/-16/-21 
f -14/-18/-1 -32/-13/-20 -15/-14/-20 
f -30/-15/-1 -32/-13/-20 -14/-18/-1 
f -22/-16/-16 -30/-15/-1 -14/-18/-1 
f -34/-17/-16 -30/-15/-1 -22/-16/-16 
f -40/-58/-5 -49/-61/-5 -52/-12/-5 
f -58/-11/-5 -12/-10/-5 -55/-9/-5 
f -61/-8/-5 -64/-7/-5 -11/-6/-5 
f -12/-10/-5 -61/-8/-5 -11/-6/-5 
f -41/-59/-5 -38/-53/-5 -39/-55/-5 
f -12/-10/-5 -40/-58/-5 -55/-9/-5 
f -27/-42/-4 -24/-39/-4 -13/-5/-4 
f -33/-48/-4 -37/-52/-4 -35/-50/-4 
f -43/-63/-7 -44/-64/-6 -10/-4/-6 
f -9/-3/-25 -43/-63/-7 -70/-71/-25 
f -45/-65/-8 -47/-67/-12 -8/-2/-12 
f -10/-4/-9 -45/-65/-8 -46/-66/-9 
f -48/-72/-11 -50/-70/-10 -7/-1/-10 
f -8/-2/-12 -48/-72/-11 -49/-68/-12 
f -51/-72/-13 -53/-70/-13 -6/-1/-13 
f -7/-3/-13 -51/-72/-13 -52/-71/-13 
f -54/-72/-14 -56/-69/-18 -5/-3/-18 
f -6/-1/-15 -54/-72/-14 -55/-73/-15 
f -57/-63/-17 -59/-64/-16 -4/-4/-16 
f -5/-3/-18 -57/-63/-17 -58/-71/-18 
f -60/-65/-19 -62/-67/-23 -3/-2/-23 
f -4/-4/-20 -60/-65/-19 -61/-66/-20 
f -63/-72/-22 -65/-70/-21 -2/-1/-21 
f -3/-2/-23 -63/-72/-22 -64/-68/-23 
f -66/-72/-24 -69/-70/-24 -1/-1/-24 
f -2/-3/-24 -66/-72/-24 -67/-71/-24 
f -71/-72/-26 -68/-69/-25 -9/-3/-25 
f -1/-1/-27 -71/-72/-26 -72/-73/-27 
f -31/-46/-4 -35/-50/-4 -27/-42/-4 
f -32/-47/-4 -31/-46/-4 -29/-44/-4 
f -61/-8/-5 -12/-10/-5 -58/-11/-5 
f -12/-10/-5 -41/-59/-5 -40/-58/-5 
f -55/-9/-5 -40/-58/-5 -52/-12/-5 
f -41/-59/-5 -39/-55/-5 -42/-60/-5 
f -12/-10/-5 -11/-6/-5 -41/-59/-5 
f -67/-54/-5 -11/-6/-5 -64/-7/-5 
f -46/-62/-5 -39/-55/-5 -70/-56/-5 
f -11/-6/-5 -38/-53/-5 -41/-59/-5 
f -33/-48/-4 -35/-50/-4 -31/-46/-4 
f -34/-49/-4 -33/-48/-4 -30/-45/-4 
f -28/-43/-4 -27/-42/-4 -13/-5/-4 
f -35/-50/-4 -36/-51/-4 -26/-41/-4 
f -35/-50/-4 -26/-41/-4 -27/-42/-4 
f -24/-39/-4 -26/-41/-4 -25/-40/-4 
f -44/-64/-9 -45/-65/-8 -10/-4/-9 
f -43/-63/-7 -10/-4/-6 -46/-66/-6 
f -71/-72/-26 -9/-3/-25 -70/-71/-25 
f -68/-69/-25 -43/-63/-7 -9/-3/-25 
f -47/-67/-12 -48/-72/-11 -8/-2/-12 
f -45/-65/-8 -8/-2/-12 -49/-68/-12 
f -50/-69/-13 -51/-72/-13 -7/-3/-13 
f -48/-72/-11 -7/-1/-10 -52/-73/-10 
f -53/-70/-15 -54/-72/-14 -6/-1/-15 
f -51/-72/-13 -6/-1/-13 -55/-73/-13 
f -56/-69/-18 -57/-63/-17 -5/-3/-18 
f -54/-72/-14 -5/-3/-18 -58/-71/-18 
f -59/-64/-20 -60/-65/-19 -4/-4/-20 
f -57/-63/-17 -4/-4/-16 -61/-66/-16 
f -62/-67/-23 -63/-72/-22 -3/-2/-23 
f -60/-65/-19 -3/-2/-23 -64/-68/-23 
f -65/-69/-24 -66/-72/-24 -2/-3/-24 
f -63/-72/-22 -2/-1/-21 -67/-73/-21 
f -69/-70/-27 -71/-72/-26 -1/-1/-27 
f -66/-72/-24 -1/-1/-24 -72/-73/-24 
f -38/-53/-5 -72/-57/-5 -39/-55/-5 
f -67/-54/-5 -38/-53/-5 -11/-6/-5 
f -42/-60/-5 -49/-61/-5 -40/-58/-5 
f -46/-62/-5 -42/-60/-5 -39/-55/-5 
# 140 faces

